name C:\Users\u0150099\Documents\master_thesis\3dpredictsim\Results\debug\Fal_s1_mtj_sc_cspx10_oy_MTc_MTPm_k1_d01_MTJm_nl_MG_exp_table_x5_d01_PF_Gefen2002_ls146_FDB_ig21.mot
datacolumns 130
datarows 4
range 0.00000000 0.03230019
endheader
time	pelvis_tilt	pelvis_list	pelvis_rotation	pelvis_tx	pelvis_ty	pelvis_tz	hip_flexion_l	hip_adduction_l	hip_rotation_l	hip_flexion_r	hip_adduction_r	hip_rotation_r	knee_angle_l	knee_angle_r	ankle_angle_l	ankle_angle_r	subtalar_angle_l	subtalar_angle_r	mtj_angle_l	mtj_angle_r	mtp_angle_l	mtp_angle_r	lumbar_extension	lumbar_bending	lumbar_rotation	arm_flex_l	arm_add_l	arm_rot_l	arm_flex_r	arm_add_r	arm_rot_r	elbow_flex_l	elbow_flex_r	pro_sup_l	pro_sup_r	glut_med1_l/activation	glut_med2_l/activation	glut_med3_l/activation	glut_min1_l/activation	glut_min2_l/activation	glut_min3_l/activation	semimem_l/activation	semiten_l/activation	bifemlh_l/activation	bifemsh_l/activation	sar_l/activation	add_long_l/activation	add_brev_l/activation	add_mag1_l/activation	add_mag2_l/activation	add_mag3_l/activation	tfl_l/activation	pect_l/activation	grac_l/activation	glut_max1_l/activation	glut_max2_l/activation	glut_max3_l/activation	iliacus_l/activation	psoas_l/activation	quad_fem_l/activation	gem_l/activation	peri_l/activation	rect_fem_l/activation	vas_med_l/activation	vas_int_l/activation	vas_lat_l/activation	med_gas_l/activation	lat_gas_l/activation	soleus_l/activation	tib_post_l/activation	flex_dig_l/activation	flex_hal_l/activation	tib_ant_l/activation	per_brev_l/activation	per_long_l/activation	per_tert_l/activation	ext_dig_l/activation	ext_hal_l/activation	FDB_l/activation	ercspn_l/activation	intobl_l/activation	extobl_l/activation	glut_med1_r/activation	glut_med2_r/activation	glut_med3_r/activation	glut_min1_r/activation	glut_min2_r/activation	glut_min3_r/activation	semimem_r/activation	semiten_r/activation	bifemlh_r/activation	bifemsh_r/activation	sar_r/activation	add_long_r/activation	add_brev_r/activation	add_mag1_r/activation	add_mag2_r/activation	add_mag3_r/activation	tfl_r/activation	pect_r/activation	grac_r/activation	glut_max1_r/activation	glut_max2_r/activation	glut_max3_r/activation	iliacus_r/activation	psoas_r/activation	quad_fem_r/activation	gem_r/activation	peri_r/activation	rect_fem_r/activation	vas_med_r/activation	vas_int_r/activation	vas_lat_r/activation	med_gas_r/activation	lat_gas_r/activation	soleus_r/activation	tib_post_r/activation	flex_dig_r/activation	flex_hal_r/activation	tib_ant_r/activation	per_brev_r/activation	per_long_r/activation	per_tert_r/activation	ext_dig_r/activation	ext_hal_r/activation	FDB_r/activation	ercspn_r/activation	intobl_r/activation	extobl_r/activation	
          0.00000000	         -2.92972688	         -2.94566685	          8.95115517	          0.00000000	          0.88744967	         -0.01361061	        -12.77629955	         -1.23687449	          5.84993016	         36.05704868	         -0.59898978	        -11.53341707	        -16.25815255	        -19.92304137	         21.92596252	         15.36501579	         12.47264208	         15.93514323	          2.51549813	         -1.00359279	          1.91310804	         22.37005363	         -4.30930785	          2.83446566	         -2.02406253	         15.75008536	        -13.61827461	         19.38089856	        -22.60472494	        -13.98985945	          3.71173611	         49.49540475	         28.98684064	         86.51662706	         86.51662706	          0.10088235	          0.07143427	          0.07281972	          0.24985877	          0.20730425	          0.16235389	          0.05012021	          0.05001812	          0.05000495	          0.09449246	          0.13911011	          0.06543846	          0.07647690	          0.05002945	          0.05031682	          0.06332147	          0.46546738	          0.05012746	          0.05000788	          0.05941683	          0.05000963	          0.05001292	          0.10487003	          0.60819340	          0.09151694	          0.11574858	          0.13746963	          0.33320327	          0.08771133	          0.09066460	          0.07556562	          0.16772165	          0.55507730	          0.10049707	          0.99888268	          0.56419439	          0.82138898	          0.05000018	          0.78849424	          0.65753011	          0.05000094	          0.05000037	          0.05000146	          0.99994502	          0.05000029	          0.05000286	          0.05000108	          0.05852774	          0.05884370	          0.05000303	          0.05897272	          0.05897217	          0.05013828	          0.36703990	          0.05897310	          0.09034753	          0.05897306	          0.13460565	          0.10597490	          0.08993713	          0.08260555	          0.05112867	          0.14708302	          0.05000398	          0.07559673	          0.06623801	          0.05000323	          0.05000105	          0.16613984	          0.12375795	          0.12847532	          0.49600617	          0.28159330	          0.16344093	          0.05000068	          0.05000036	          0.05000034	          0.05000025	          0.05000035	          0.05000214	          0.05000010	          0.18563109	          0.05000062	          0.05000168	          0.40029906	          0.05000038	          0.08957780	          0.09881033	          0.90052826	          0.85219014	          0.72588922	          0.05883313	          0.05896920	          0.07634846	
          0.01076673	         -2.92715202	         -3.06968972	          9.16953518	          0.01725537	          0.88508888	         -0.01282615	        -13.70497105	         -1.59248343	          5.22729786	         36.07491216	         -0.42632494	        -11.69553609	        -16.50864276	        -21.16251368	         20.91487502	         14.07666086	         12.12016705	         16.03749222	          2.49736560	         -0.45250912	          3.91733092	         22.62770103	         -4.13816614	          3.00743795	         -2.28834327	         15.86542263	        -13.57465285	         19.38501634	        -23.66871523	        -13.85802977	          3.76846004	         50.23153932	         28.53977856	         86.51662706	         86.51662706	          0.08553415	          0.06056706	          0.06174193	          0.21184494	          0.17576475	          0.13765346	          0.05002433	          0.05003847	          0.05897295	          0.08011650	          0.11794687	          0.19142129	          0.06484566	          0.17974286	          0.05892547	          0.05369627	          0.40191727	          0.06950474	          0.06954400	          0.05897520	          0.05897601	          0.05898295	          0.09867616	          0.65236552	          0.09652133	          0.09814235	          0.11655507	          0.39128583	          0.12956474	          0.13677425	          0.11355374	          0.15440574	          0.52254914	          0.10455113	          0.97793117	          0.58940495	          0.87528964	          0.05000026	          0.72553021	          0.62185987	          0.05000060	          0.05000037	          0.05000315	          0.93034601	          0.05193661	          0.06525540	          0.05000056	          0.05000022	          0.05000047	          0.05000766	          0.05000097	          0.05000093	          0.05000095	          0.31119733	          0.05000083	          0.07660178	          0.05000075	          0.11412772	          0.08985511	          0.07627399	          0.17088907	          0.11461620	          0.22888756	          0.05898205	          0.06964745	          0.05616071	          0.05000233	          0.06109482	          0.27908218	          0.10492968	          0.10892924	          0.63627951	          0.23875250	          0.13857795	          0.07705917	          0.14906100	          0.13669669	          0.11704659	          0.05897249	          0.05897283	          0.05897233	          0.19816414	          0.05897433	          0.05000064	          0.59619586	          0.08062296	          0.07594916	          0.47537489	          0.94209263	          0.87820860	          0.61544967	          0.05000118	          0.05000014	          0.06473270	
          0.02153346	         -2.92406489	         -3.20106591	          9.35020854	          0.03457791	          0.88275268	         -0.01198709	        -14.48687230	         -1.95205535	          4.60812650	         36.04459724	         -0.28594773	        -11.73796570	        -17.00423974	        -22.81814537	         19.75124517	         12.90572832	         11.80473708	         16.10541706	          2.47271145	          0.05425002	          6.12372953	         22.84422950	         -3.97059965	          3.18675066	         -2.54462970	         15.90932918	        -13.53893464	         19.37045648	        -24.58067694	        -13.75170327	          4.06841454	         50.87788631	         27.88349347	         86.51662706	         86.51662706	          0.11778441	          0.05135262	          0.05234848	          0.17961562	          0.14902383	          0.11671079	          0.05004656	          0.05000356	          0.05000271	          0.06792767	          0.10000305	          0.23720255	          0.08427364	          0.15239818	          0.05005961	          0.05023464	          0.46819993	          0.05896145	          0.05896511	          0.05002239	          0.05001524	          0.05001521	          0.20879202	          0.79761865	          0.08183642	          0.08321135	          0.09882227	          0.43734837	          0.13981878	          0.14107785	          0.13318873	          0.15595546	          0.49221121	          0.09469439	          0.94285771	          0.61760492	          0.92739658	          0.05000014	          0.65556239	          0.57764224	          0.05000103	          0.05000063	          0.05000326	          0.78879965	          0.08521264	          0.05532725	          0.05000118	          0.23808896	          0.37054089	          0.44696486	          0.20837504	          0.26753405	          0.35815870	          0.26385074	          0.17514114	          0.12462754	          0.13469974	          0.09676737	          0.07618449	          0.06466969	          0.14488977	          0.09717870	          0.25569016	          0.05000972	          0.05905424	          0.25602855	          0.28199278	          0.24744587	          0.34698003	          0.08896549	          0.09235654	          0.53947493	          0.20243664	          0.25838589	          0.06533512	          0.12638231	          0.11589915	          0.09923869	          0.05000021	          0.05000055	          0.05000006	          0.21157203	          0.05000213	          0.05897098	          0.58535912	          0.06835684	          0.06439413	          0.51266508	          0.96628934	          0.92909882	          0.77613546	          0.07555334	          0.09375539	          0.05488415	
          0.03230019	         -2.92533841	         -3.32728921	          9.47296248	          0.05162408	          0.88083635	         -0.01106270	        -15.05666860	         -2.30708171	          4.00794319	         36.14969117	         -0.17182178	        -11.78642236	        -17.78454925	        -24.65012758	         18.31241702	         11.36660096	         11.58614935	         16.07489921	          2.44180153	          0.74314952	          8.59618875	         22.94113720	         -3.84079572	          3.36667146	         -2.78986649	         15.92728392	        -13.50412447	         19.35747439	        -25.24135332	        -13.66683347	          4.59795786	         51.35114055	         26.97487830	         86.51662706	         86.51662706	          0.09986472	          0.05000693	          0.05000366	          0.15228900	          0.12635138	          0.09895483	          0.05005355	          0.05000383	          0.05000406	          0.05759337	          0.08478947	          0.40305272	          0.07145467	          0.18632511	          0.07570099	          0.07124715	          0.46837604	          0.05000553	          0.05000462	          0.05011841	          0.05012161	          0.05876820	          0.28299059	          0.88218186	          0.06938640	          0.07056865	          0.08378870	          0.50012202	          0.18723740	          0.18723790	          0.18723507	          0.13223267	          0.43981800	          0.09318960	          0.84305168	          0.70371843	          0.95773243	          0.05000045	          0.55582325	          0.48975791	          0.05000109	          0.05000046	          0.05000217	          0.66878863	          0.11390362	          0.05000031	          0.05000033	          0.34843501	          0.44853105	          0.47947233	          0.18269504	          0.22694436	          0.30366878	          0.22370750	          0.14849484	          0.10566639	          0.11420609	          0.08204511	          0.06459457	          0.05494435	          0.45107701	          0.38861772	          0.34599825	          0.05000474	          0.05007458	          0.21707869	          0.36725100	          0.34242626	          0.47805587	          0.07543008	          0.07830524	          0.45739900	          0.17163820	          0.21907517	          0.05539492	          0.10715510	          0.09826697	          0.08414127	          0.05000014	          0.05000035	          0.05000005	          0.25449246	          0.05000046	          0.05000025	          0.54754553	          0.05898149	          0.05897083	          0.43466670	          0.98037537	          0.95872488	          0.66811713	          0.12496203	          0.07949125	          0.05000058	
